<svg width="23" height="20" viewBox="0 0 23 20" fill="none" xmlns="http://www.w3.org/2000/svg">
<path d="M11.0686 16.6457L4 10V11.3577C4 11.7174 4.15162 12.0636 4.42599 12.3148L10.0505 17.6029C10.6137 18.1324 11.5307 18.1324 12.0939 17.6029L16.5776 13.3874C17.1408 12.8579 17.1408 11.9958 16.5776 11.4663L11.0686 16.6457Z" fill="#E62428"/>
<path d="M10.0539 13.5739C10.3356 13.8556 10.7041 14 11.0725 14C11.441 14 11.8094 13.8556 12.0911 13.5739L16.5774 9.08889C17.1409 8.52556 17.1409 7.60833 16.5774 7.045L10.9497 1.41889C10.6824 1.15167 10.314 1 9.93109 1H5.44485C4.65018 1 4 1.65 4 2.44444V6.92944C4 7.31222 4.15171 7.68056 4.42623 7.94778L10.0539 13.5739ZM5.44485 2.44444H9.93109L15.5588 8.07056L11.0725 12.5556L5.44485 6.92944V2.44444Z" fill="#E62428"/>
<path d="M6.5 5C6.77614 5 7 4.77614 7 4.5C7 4.22386 6.77614 4 6.5 4C6.22386 4 6 4.22386 6 4.5C6 4.77614 6.22386 5 6.5 5Z" fill="#E62428"/>
</svg>
