<svg width="20" height="20" viewBox="0 0 20 20" fill="none" xmlns="http://www.w3.org/2000/svg">
<path d="M8.66667 2.00002H3.25C2.91848 2.00002 2.60054 2.13171 2.36612 2.36613C2.1317 2.60055 2 2.91849 2 3.25001V12.4167C2 12.7482 2.1317 13.0661 2.36612 13.3006C2.60054 13.535 2.91848 13.6667 3.25 13.6667H15.75C16.0815 13.6667 16.3995 13.535 16.6339 13.3006C16.8683 13.0661 17 12.7482 17 12.4167V8.66668M9.5 13.6667V17M5.33333 17H13.6667M13.375 2.00002C12.6158 2.00002 12 2.59793 12 3.33543C12 4.67043 13.625 5.88418 14.5 6.16668C15.375 5.88418 17 4.67085 17 3.33543C17 2.59793 16.3846 2.00002 15.625 2.00002C15.406 1.99898 15.1898 2.04987 14.9943 2.14851C14.7987 2.24716 14.6293 2.39075 14.5 2.56751C14.3707 2.39075 14.2013 2.24716 14.0057 2.14851C13.8102 2.04987 13.594 1.99898 13.375 2.00002V2.00002Z" stroke="#E62428" stroke-width="1.5" stroke-linecap="round" stroke-linejoin="round"/>
</svg>
