<svg width="21" height="20" viewBox="0 0 21 20" fill="none" xmlns="http://www.w3.org/2000/svg">
<path d="M2 5.57143C2 5.15466 2.15804 4.75496 2.43934 4.46026C2.72064 4.16556 3.10218 4 3.5 4H15.5C15.8978 4 16.2794 4.16556 16.5607 4.46026C16.842 4.75496 17 5.15466 17 5.57143V13.4286C17 13.8453 16.842 14.245 16.5607 14.5397C16.2794 14.8344 15.8978 15 15.5 15H3.5C3.10218 15 2.72064 14.8344 2.43934 14.5397C2.15804 14.245 2 13.8453 2 13.4286V5.57143Z" stroke="#E62428" stroke-width="1.5" stroke-linecap="round" stroke-linejoin="round"/>
<path d="M9.5 11.8571C10.7426 11.8571 11.75 10.8018 11.75 9.5C11.75 8.19818 10.7426 7.14285 9.5 7.14285C8.25736 7.14285 7.25 8.19818 7.25 9.5C7.25 10.8018 8.25736 11.8571 9.5 11.8571Z" stroke="#E62428" stroke-width="1.5" stroke-linecap="round" stroke-linejoin="round"/>
<path d="M2 7.14286C2.79565 7.14286 3.55871 6.81174 4.12132 6.22234C4.68393 5.63294 5 4.83354 5 4M14 15C14 14.1665 14.3161 13.3671 14.8787 12.7777C15.4413 12.1883 16.2044 11.8571 17 11.8571" stroke="#E62428" stroke-width="1.5" stroke-linecap="round" stroke-linejoin="round"/>
</svg>
